<svg width="512" height="160" viewBox="0 0 512 160" fill="none" xmlns="http://www.w3.org/2000/svg">
  <rect width="116" height="116" rx="32" fill="url(#paint0_linear_1_2)"/>
  <rect x="9" y="9" width="98" height="98" rx="23" stroke="rgba(255,255,255,0.45)" stroke-width="2"/>
  <path d="M29 31H49C64.464 31 77 43.536 77 59C77 74.464 64.464 87 49 87H29V31ZM45 47V71H49C55.6274 71 61 65.6274 61 59C61 52.3726 55.6274 47 49 47H45Z" fill="white"/>
  <path d="M81 31H89L69 87H61L81 31Z" fill="#FCE9EE" fill-opacity="0.9"/>
  <path d="M150 68V46H161.14V67.44C161.14 75.18 165.16 79.34 171.8 79.34C178.44 79.34 182.46 75.18 182.46 67.44V46H193.6V68C193.6 81.82 185.72 89.66 171.66 89.66C157.54 89.66 150 81.82 150 68Z" fill="#352A2F"/>
  <path d="M215.282 46H226.422V78.98H246.882V89H215.282V46Z" fill="#352A2F"/>
  <path d="M288.816 81.32H268.836L265.016 89H253.636L274.296 46H285.256L306.016 89H292.636L288.816 81.32ZM285.116 73.16L278.826 59.48L272.536 73.16H285.116Z" fill="#352A2F"/>
  <path d="M330 54.4H316.24V46H354.9V54.4H341.14V89H330V54.4Z" fill="#8D7E84"/>
  <path d="M365.241 46H376.381V89H365.241V46Z" fill="#8D7E84"/>
  <path d="M390.149 67.5C390.149 54.64 400.249 45.16 414.009 45.16C427.709 45.16 437.809 54.58 437.809 67.5C437.809 80.42 427.709 89.84 414.009 89.84C400.249 89.84 390.149 80.36 390.149 67.5ZM426.549 67.5C426.549 59.78 421.089 54.62 414.009 54.62C406.929 54.62 401.409 59.78 401.409 67.5C401.409 75.22 406.929 80.38 414.009 80.38C421.089 80.38 426.549 75.22 426.549 67.5Z" fill="#8D7E84"/>
  <path d="M452.021 46H463.161L483.621 70.92V46H494.641V89H483.501L463.041 64.08V89H452.021V46Z" fill="#8D7E84"/>
  <defs>
    <linearGradient id="paint0_linear_1_2" x1="15" y1="14" x2="106" y2="104" gradientUnits="userSpaceOnUse">
      <stop stop-color="#1F7669"/>
      <stop offset="0.55" stop-color="#C48B9A"/>
      <stop offset="1" stop-color="#F4DFE3"/>
    </linearGradient>
  </defs>
</svg>
